<svg width="353" height="95" viewBox="0 0 353 95" fill="none" xmlns="http://www.w3.org/2000/svg">
<path d="M203.96 46.8076H196.907V28.0204C196.907 24.8999 196.394 22.613 195.368 21.1596C194.385 19.7062 192.91 18.9795 190.944 18.9795C189.576 18.9795 188.208 19.3215 186.84 20.0054C185.515 20.6894 184.318 21.6298 183.249 22.8267C182.181 23.9809 181.411 25.3274 180.941 26.8663V46.8076H173.888V13.2728H180.3V20.0054C181.155 18.5093 182.266 17.2269 183.634 16.1582C185.045 15.0468 186.626 14.1919 188.379 13.5934C190.131 12.995 191.991 12.6957 193.957 12.6957C195.966 12.6957 197.612 13.0591 198.894 13.7858C200.22 14.5125 201.246 15.517 201.972 16.7994C202.742 18.0391 203.255 19.4925 203.511 21.1596C203.81 22.7839 203.96 24.5152 203.96 26.3533V46.8076Z" fill="white"/>
<path d="M150.384 47.4487C147.734 47.4487 145.361 46.9999 143.267 46.1022C141.172 45.1618 139.355 43.8794 137.816 42.255C136.32 40.6307 135.166 38.7926 134.354 36.7407C133.542 34.6461 133.136 32.4233 133.136 30.0722C133.136 27.7212 133.542 25.4984 134.354 23.4038C135.166 21.3092 136.32 19.4711 137.816 17.8895C139.355 16.2651 141.172 15.0041 143.267 14.1064C145.404 13.166 147.776 12.6957 150.384 12.6957C152.992 12.6957 155.343 13.166 157.437 14.1064C159.575 15.0041 161.391 16.2651 162.887 17.8895C164.426 19.4711 165.602 21.3092 166.414 23.4038C167.226 25.4984 167.632 27.7212 167.632 30.0722C167.632 32.4233 167.226 34.6461 166.414 36.7407C165.602 38.7926 164.426 40.6307 162.887 42.255C161.391 43.8794 159.575 45.1618 157.437 46.1022C155.343 46.9999 152.992 47.4487 150.384 47.4487ZM140.381 30.1364C140.381 32.2737 140.83 34.1973 141.728 35.9072C142.625 37.617 143.822 38.9635 145.319 39.9467C146.815 40.9299 148.503 41.4215 150.384 41.4215C152.222 41.4215 153.889 40.9299 155.385 39.9467C156.924 38.9208 158.143 37.5529 159.04 35.843C159.938 34.0904 160.387 32.1668 160.387 30.0722C160.387 27.9349 159.938 26.0113 159.04 24.3014C158.143 22.5916 156.924 21.2451 155.385 20.2619C153.889 19.236 152.222 18.723 150.384 18.723C148.503 18.723 146.815 19.236 145.319 20.2619C143.822 21.2878 142.625 22.6557 141.728 24.3656C140.83 26.0327 140.381 27.9563 140.381 30.1364Z" fill="white"/>
<path d="M127.129 46.8076H120.076V28.0204C120.076 24.8999 119.563 22.613 118.537 21.1596C117.554 19.7062 116.079 18.9795 114.113 18.9795C112.745 18.9795 111.377 19.3215 110.009 20.0054C108.684 20.6894 107.487 21.6298 106.418 22.8267C105.349 23.9809 104.58 25.3274 104.11 26.8663V46.8076H97.0566V13.2728H103.469V20.0054C104.324 18.5093 105.435 17.2269 106.803 16.1582C108.214 15.0468 109.795 14.1919 111.548 13.5934C113.3 12.995 115.16 12.6957 117.126 12.6957C119.135 12.6957 120.781 13.0591 122.063 13.7858C123.389 14.5125 124.414 15.517 125.141 16.7994C125.911 18.0391 126.424 19.4925 126.68 21.1596C126.979 22.7839 127.129 24.5152 127.129 26.3533V46.8076Z" fill="white"/>
<path d="M73.553 47.4487C70.9027 47.4487 68.5302 46.9999 66.4356 46.1022C64.3411 45.1618 62.5243 43.8794 60.9854 42.255C59.4893 40.6307 58.3352 38.7926 57.523 36.7407C56.7108 34.6461 56.3047 32.4233 56.3047 30.0722C56.3047 27.7212 56.7108 25.4984 57.523 23.4038C58.3352 21.3092 59.4893 19.4711 60.9854 17.8895C62.5243 16.2651 64.3411 15.0041 66.4356 14.1064C68.573 13.166 70.9454 12.6957 73.553 12.6957C76.1605 12.6957 78.5116 13.166 80.6061 14.1064C82.7435 15.0041 84.5602 16.2651 86.0563 17.8895C87.5952 19.4711 88.7708 21.3092 89.5829 23.4038C90.3951 25.4984 90.8012 27.7212 90.8012 30.0722C90.8012 32.4233 90.3951 34.6461 89.5829 36.7407C88.7708 38.7926 87.5952 40.6307 86.0563 42.255C84.5602 43.8794 82.7435 45.1618 80.6061 46.1022C78.5116 46.9999 76.1605 47.4487 73.553 47.4487ZM63.5502 30.1364C63.5502 32.2737 63.9991 34.1973 64.8968 35.9072C65.7944 37.617 66.9913 38.9635 68.4875 39.9467C69.9836 40.9299 71.6721 41.4215 73.553 41.4215C75.3911 41.4215 77.0582 40.9299 78.5543 39.9467C80.0932 38.9208 81.3115 37.5529 82.2091 35.843C83.1068 34.0904 83.5557 32.1668 83.5557 30.0722C83.5557 27.9349 83.1068 26.0113 82.2091 24.3014C81.3115 22.5916 80.0932 21.2451 78.5543 20.2619C77.0582 19.236 75.3911 18.723 73.553 18.723C71.6721 18.723 69.9836 19.236 68.4875 20.2619C66.9913 21.2878 65.7944 22.6557 64.8968 24.3656C63.9991 26.0327 63.5502 27.9563 63.5502 30.1364Z" fill="white"/>
<path d="M53.9792 19.3642C51.2434 19.4069 48.8069 20.0268 46.6695 21.2237C44.5749 22.4206 43.0788 24.1091 42.1811 26.2891V46.8075H35.1279V13.2728H41.6682V20.7748C42.8223 18.4665 44.3398 16.6284 46.2207 15.2605C48.1015 13.8499 50.0893 13.0804 52.1838 12.9522C52.6113 12.9522 52.9533 12.9522 53.2098 12.9522C53.509 12.9522 53.7655 12.9736 53.9792 13.0163V19.3642Z" fill="white"/>
<path d="M23.3397 46.8076L12.5675 31.3547L7.05319 36.6125V46.8076H0V0H7.05319V29.4952L22.5702 13.3369H30.1364L17.12 27.3792L30.8417 46.8076H23.3397Z" fill="white"/>
<path d="M349.886 46.8075V42.0386H352.354V46.8075H349.886Z" fill="white"/>
<path d="M332.856 47.3686C330.537 47.3686 328.387 46.9758 326.404 46.1903C324.422 45.4049 322.683 44.208 321.187 42.5996L322.477 40.636C324.085 42.1695 325.712 43.2916 327.358 44.0023C329.004 44.6755 330.799 45.0121 332.744 45.0121C335.25 45.0121 337.27 44.4885 338.803 43.4412C340.374 42.3939 341.16 40.9352 341.16 39.065C341.16 37.7933 340.786 36.8208 340.038 36.1476C339.327 35.4369 338.28 34.8758 336.896 34.4644C335.549 34.0156 333.904 33.548 331.959 33.0618C329.976 32.5381 328.293 31.9958 326.909 31.4347C325.563 30.8737 324.553 30.1443 323.88 29.2466C323.206 28.349 322.87 27.1334 322.87 25.5998C322.87 23.6923 323.337 22.1213 324.272 20.887C325.245 19.6153 326.535 18.6802 328.144 18.0818C329.789 17.4459 331.603 17.128 333.586 17.128C335.867 17.128 337.85 17.502 339.533 18.2501C341.253 18.9981 342.563 19.9893 343.46 21.2236L341.945 23.019C341.01 21.8221 339.795 20.9431 338.299 20.3821C336.802 19.7836 335.157 19.4844 333.361 19.4844C332.015 19.4844 330.743 19.6714 329.546 20.0454C328.349 20.4195 327.377 21.0366 326.629 21.8969C325.918 22.7198 325.563 23.8419 325.563 25.2632C325.563 26.3853 325.825 27.2643 326.348 27.9001C326.909 28.536 327.732 29.0596 328.817 29.4711C329.901 29.8451 331.248 30.2565 332.856 30.7054C335.138 31.2664 337.102 31.8462 338.747 32.4446C340.393 33.0431 341.665 33.8286 342.563 34.801C343.46 35.7361 343.909 37.0639 343.909 38.7845C343.909 41.4401 342.899 43.5347 340.879 45.0682C338.86 46.6018 336.185 47.3686 332.856 47.3686Z" fill="white"/>
<path d="M302.936 47.3685C300.655 47.3685 298.523 46.7701 296.54 45.5732C294.558 44.3389 293.006 42.8053 291.884 40.9726V46.8075H289.303V5.85088H292.108V23.9728C293.492 21.953 295.119 20.3073 296.989 19.0355C298.897 17.7638 301.085 17.128 303.553 17.128C305.648 17.128 307.499 17.5581 309.108 18.4184C310.754 19.2787 312.156 20.4382 313.316 21.8969C314.475 23.3556 315.354 24.9827 315.953 26.778C316.588 28.5734 316.906 30.4248 316.906 32.3324C316.906 34.3148 316.551 36.2224 315.84 38.0551C315.13 39.8505 314.139 41.4588 312.867 42.8801C311.595 44.2641 310.118 45.3675 308.435 46.1903C306.751 46.9758 304.919 47.3685 302.936 47.3685ZM302.375 44.8438C304.096 44.8438 305.667 44.5072 307.088 43.8339C308.509 43.1233 309.725 42.1695 310.735 40.9726C311.782 39.7757 312.586 38.4292 313.147 36.933C313.746 35.4369 314.045 33.9034 314.045 32.3324C314.045 30.1256 313.577 28.0684 312.642 26.1609C311.707 24.2159 310.398 22.645 308.715 21.4481C307.032 20.2511 305.087 19.6527 302.88 19.6527C301.234 19.6527 299.72 20.0267 298.336 20.7748C296.952 21.4855 295.736 22.4205 294.689 23.58C293.679 24.7395 292.819 26.0113 292.108 27.3952V37.0452C292.258 38.1299 292.669 39.1585 293.342 40.131C294.016 41.0661 294.857 41.889 295.867 42.5996C296.914 43.2729 297.999 43.8152 299.121 44.2267C300.281 44.6381 301.365 44.8438 302.375 44.8438Z" fill="white"/>
<path d="M256.755 38.3918C256.755 36.6338 257.279 35.119 258.326 33.8473C259.373 32.5381 260.813 31.5282 262.646 30.8176C264.479 30.0695 266.592 29.6955 268.986 29.6955C270.482 29.6955 272.034 29.8264 273.642 30.0882C275.251 30.35 276.691 30.7054 277.963 31.1542V28.4051C277.963 25.712 277.177 23.5613 275.606 21.953C274.073 20.3447 271.941 19.5405 269.21 19.5405C267.751 19.5405 266.237 19.8397 264.666 20.4382C263.095 21.0366 261.486 21.8969 259.841 23.019L258.662 20.9992C260.57 19.7275 262.403 18.7737 264.161 18.1379C265.956 17.4646 267.733 17.128 269.491 17.128C272.969 17.128 275.718 18.1566 277.738 20.2137C279.758 22.2709 280.768 25.0762 280.768 28.6295V43.1046C280.768 43.5534 280.861 43.89 281.048 44.1145C281.273 44.3389 281.591 44.4698 282.002 44.5072V46.8075C281.665 46.8449 281.385 46.8636 281.161 46.8636C280.936 46.8636 280.749 46.8636 280.599 46.8636C279.889 46.7514 279.328 46.4522 278.916 45.9659C278.542 45.4797 278.337 44.9373 278.299 44.3389V42.0386C276.953 43.7217 275.213 45.0308 273.081 45.9659C270.987 46.901 268.78 47.3686 266.461 47.3686C264.628 47.3686 262.964 46.9758 261.468 46.1903C260.009 45.4049 258.849 44.3389 257.989 42.9924C257.166 41.6084 256.755 40.0749 256.755 38.3918ZM276.84 40.8043C277.214 40.318 277.495 39.8505 277.682 39.4016C277.869 38.9528 277.963 38.5414 277.963 38.1673V33.3423C276.616 32.8187 275.213 32.4259 273.755 32.1641C272.296 31.9023 270.8 31.7714 269.266 31.7714C266.349 31.7714 263.974 32.3511 262.141 33.5106C260.346 34.6701 259.448 36.2411 259.448 38.2234C259.448 39.4578 259.766 40.5986 260.402 41.6458C261.038 42.6931 261.917 43.5347 263.039 44.1706C264.198 44.8064 265.526 45.1243 267.022 45.1243C269.117 45.1243 271.043 44.7316 272.801 43.9461C274.596 43.1233 275.943 42.076 276.84 40.8043Z" fill="white"/>
<path d="M227.409 46.8075V6.97298H230.271V44.2267H254.059V46.8075H227.409Z" fill="white"/>
<path d="M203.96 47.6412H196.907V66.4283C196.907 69.5488 196.394 71.8358 195.368 73.2892C194.385 74.7425 192.91 75.4692 190.944 75.4692C189.576 75.4692 188.208 75.1273 186.84 74.4433C185.515 73.7594 184.318 72.8189 183.249 71.622C182.181 70.4679 181.411 69.1214 180.941 67.5825V47.6412H173.888V81.1759H180.3V74.4433C181.155 75.9394 182.266 77.2218 183.634 78.2905C185.045 79.4019 186.626 80.2569 188.379 80.8553C190.131 81.4538 191.991 81.753 193.957 81.753C195.966 81.753 197.612 81.3896 198.894 80.663C200.22 79.9363 201.246 78.9317 201.972 77.6493C202.742 76.4097 203.255 74.9563 203.511 73.2892C203.81 71.6648 203.96 69.9335 203.96 68.0954V47.6412Z" fill="url(#paint0_linear_111_1048)"/>
<path d="M150.384 47C147.734 47 145.361 47.4488 143.267 48.3465C141.172 49.2869 139.355 50.5693 137.816 52.1937C136.32 53.8181 135.166 55.6562 134.354 57.708C133.542 59.8026 133.136 62.0254 133.136 64.3765C133.136 66.7276 133.542 68.9504 134.354 71.045C135.166 73.1395 136.32 74.9777 137.816 76.5593C139.355 78.1836 141.172 79.4447 143.267 80.3424C145.404 81.2828 147.776 81.753 150.384 81.753C152.992 81.753 155.343 81.2828 157.437 80.3424C159.575 79.4447 161.391 78.1836 162.887 76.5593C164.426 74.9777 165.602 73.1395 166.414 71.045C167.226 68.9504 167.632 66.7276 167.632 64.3765C167.632 62.0254 167.226 59.8026 166.414 57.708C165.602 55.6562 164.426 53.8181 162.887 52.1937C161.391 50.5693 159.575 49.2869 157.437 48.3465C155.343 47.4488 152.992 47 150.384 47ZM140.381 64.3124C140.381 62.175 140.83 60.2514 141.728 58.5416C142.625 56.8317 143.822 55.4852 145.319 54.502C146.815 53.5188 148.503 53.0273 150.384 53.0273C152.222 53.0273 153.889 53.5188 155.385 54.502C156.924 55.5279 158.143 56.8958 159.04 58.6057C159.938 60.3583 160.387 62.2819 160.387 64.3765C160.387 66.5138 159.938 68.4374 159.04 70.1473C158.143 71.8571 156.924 73.2037 155.385 74.1868C153.889 75.2128 152.222 75.7257 150.384 75.7257C148.503 75.7257 146.815 75.2128 145.319 74.1868C143.822 73.1609 142.625 71.793 141.728 70.0832C140.83 68.416 140.381 66.4924 140.381 64.3124Z" fill="url(#paint1_linear_111_1048)"/>
<path d="M127.129 47.6412H120.076V66.4283C120.076 69.5488 119.563 71.8358 118.537 73.2892C117.554 74.7425 116.079 75.4692 114.113 75.4692C112.745 75.4692 111.377 75.1273 110.009 74.4433C108.684 73.7594 107.487 72.8189 106.418 71.622C105.349 70.4679 104.58 69.1214 104.11 67.5825V47.6412H97.0566V81.1759H103.469V74.4433C104.324 75.9394 105.435 77.2218 106.803 78.2905C108.214 79.4019 109.795 80.2569 111.548 80.8553C113.3 81.4538 115.16 81.753 117.126 81.753C119.135 81.753 120.781 81.3896 122.063 80.663C123.389 79.9363 124.414 78.9317 125.141 77.6493C125.911 76.4097 126.424 74.9563 126.68 73.2892C126.979 71.6648 127.129 69.9335 127.129 68.0954V47.6412Z" fill="url(#paint2_linear_111_1048)"/>
<path d="M73.553 47C70.9027 47 68.5302 47.4488 66.4356 48.3465C64.3411 49.2869 62.5243 50.5693 60.9854 52.1937C59.4893 53.8181 58.3352 55.6562 57.523 57.708C56.7108 59.8026 56.3047 62.0254 56.3047 64.3765C56.3047 66.7276 56.7108 68.9504 57.523 71.045C58.3352 73.1395 59.4893 74.9777 60.9854 76.5593C62.5243 78.1836 64.3411 79.4447 66.4356 80.3424C68.573 81.2828 70.9454 81.753 73.553 81.753C76.1605 81.753 78.5116 81.2828 80.6061 80.3424C82.7435 79.4447 84.5602 78.1836 86.0563 76.5593C87.5952 74.9777 88.7708 73.1395 89.5829 71.045C90.3951 68.9504 90.8012 66.7276 90.8012 64.3765C90.8012 62.0254 90.3951 59.8026 89.5829 57.708C88.7708 55.6562 87.5952 53.8181 86.0563 52.1937C84.5602 50.5693 82.7435 49.2869 80.6061 48.3465C78.5116 47.4488 76.1605 47 73.553 47ZM63.5502 64.3124C63.5502 62.175 63.9991 60.2514 64.8968 58.5416C65.7944 56.8317 66.9913 55.4852 68.4875 54.502C69.9836 53.5188 71.6721 53.0273 73.553 53.0273C75.3911 53.0273 77.0582 53.5188 78.5543 54.502C80.0932 55.5279 81.3115 56.8958 82.2091 58.6057C83.1068 60.3583 83.5557 62.2819 83.5557 64.3765C83.5557 66.5138 83.1068 68.4374 82.2091 70.1473C81.3115 71.8571 80.0932 73.2037 78.5543 74.1868C77.0582 75.2128 75.3911 75.7257 73.553 75.7257C71.6721 75.7257 69.9836 75.2128 68.4875 74.1868C66.9913 73.1609 65.7944 71.793 64.8968 70.0832C63.9991 68.416 63.5502 66.4924 63.5502 64.3124Z" fill="url(#paint3_linear_111_1048)"/>
<path d="M53.9792 75.0845C51.2434 75.0418 48.8069 74.422 46.6695 73.2251C44.5749 72.0282 43.0788 70.3397 42.1811 68.1596V47.6412H35.1279V81.1759H41.6682V73.6739C42.8223 75.9822 44.3398 77.8203 46.2207 79.1882C48.1015 80.5989 50.0893 81.3683 52.1838 81.4965C52.6113 81.4965 52.9533 81.4965 53.2098 81.4965C53.509 81.4965 53.7655 81.4752 53.9792 81.4324V75.0845Z" fill="url(#paint4_linear_111_1048)"/>
<path d="M23.3397 47.6412L12.5675 63.0941L7.05319 57.8362V47.6412H0V94.4487H7.05319V64.9536L22.5702 81.1118H30.1364L17.12 67.0695L30.8417 47.6412H23.3397Z" fill="url(#paint5_linear_111_1048)"/>
<path d="M349.886 47.6412V52.4102H352.354V47.6412H349.886Z" fill="url(#paint6_linear_111_1048)"/>
<path d="M332.856 47.0802C330.537 47.0802 328.387 47.4729 326.404 48.2584C324.422 49.0439 322.683 50.2408 321.187 51.8491L322.477 53.8128C324.085 52.2792 325.712 51.1571 327.358 50.4465C329.004 49.7732 330.799 49.4366 332.744 49.4366C335.25 49.4366 337.27 49.9602 338.803 51.0075C340.374 52.0548 341.16 53.5135 341.16 55.3837C341.16 56.6554 340.786 57.6279 340.038 58.3012C339.327 59.0118 338.28 59.5729 336.896 59.9843C335.549 60.4332 333.904 60.9007 331.959 61.3869C329.976 61.9106 328.293 62.4529 326.909 63.014C325.563 63.575 324.553 64.3044 323.88 65.2021C323.206 66.0998 322.87 67.3154 322.87 68.8489C322.87 70.7565 323.337 72.3274 324.272 73.5617C325.245 74.8334 326.535 75.7685 328.144 76.367C329.789 77.0028 331.603 77.3208 333.586 77.3208C335.867 77.3208 337.85 76.9467 339.533 76.1987C341.253 75.4506 342.563 74.4594 343.46 73.2251L341.945 71.4297C341.01 72.6266 339.795 73.5056 338.299 74.0667C336.802 74.6651 335.157 74.9643 333.361 74.9643C332.015 74.9643 330.743 74.7773 329.546 74.4033C328.349 74.0293 327.377 73.4121 326.629 72.5518C325.918 71.729 325.563 70.6069 325.563 69.1855C325.563 68.0634 325.825 67.1845 326.348 66.5486C326.909 65.9127 327.732 65.3891 328.817 64.9777C329.901 64.6036 331.248 64.1922 332.856 63.7434C335.138 63.1823 337.102 62.6026 338.747 62.0041C340.393 61.4056 341.665 60.6202 342.563 59.6477C343.46 58.7126 343.909 57.3848 343.909 55.6642C343.909 53.0086 342.899 50.914 340.879 49.3805C338.86 47.8469 336.185 47.0802 332.856 47.0802Z" fill="url(#paint7_linear_111_1048)"/>
<path d="M302.936 47.0802C300.655 47.0802 298.523 47.6786 296.54 48.8755C294.558 50.1098 293.006 51.6434 291.884 53.4761V47.6412H289.303V88.5978H292.108V70.4759C293.492 72.4957 295.119 74.1415 296.989 75.4132C298.897 76.6849 301.085 77.3207 303.553 77.3207C305.648 77.3207 307.499 76.8906 309.108 76.0303C310.754 75.1701 312.156 74.0106 313.316 72.5518C314.475 71.0931 315.354 69.466 315.953 67.6707C316.588 65.8753 316.906 64.0239 316.906 62.1163C316.906 60.1339 316.551 58.2264 315.84 56.3936C315.13 54.5982 314.139 52.9899 312.867 51.5686C311.595 50.1846 310.118 49.0812 308.435 48.2584C306.751 47.4729 304.919 47.0802 302.936 47.0802ZM302.375 49.6049C304.096 49.6049 305.667 49.9415 307.088 50.6148C308.509 51.3254 309.725 52.2792 310.735 53.4761C311.782 54.673 312.586 56.0196 313.147 57.5157C313.746 59.0118 314.045 60.5454 314.045 62.1163C314.045 64.3231 313.577 66.3803 312.642 68.2878C311.707 70.2328 310.398 71.8038 308.715 73.0007C307.032 74.1976 305.087 74.796 302.88 74.796C301.234 74.796 299.72 74.422 298.336 73.6739C296.952 72.9633 295.736 72.0282 294.689 70.8687C293.679 69.7092 292.819 68.4375 292.108 67.0535V57.4035C292.258 56.3188 292.669 55.2902 293.342 54.3177C294.016 53.3826 294.857 52.5598 295.867 51.8491C296.914 51.1758 297.999 50.6335 299.121 50.222C300.281 49.8106 301.365 49.6049 302.375 49.6049Z" fill="url(#paint8_linear_111_1048)"/>
<path d="M256.755 56.057C256.755 57.8149 257.279 59.3298 258.326 60.6015C259.373 61.9106 260.813 62.9205 262.646 63.6311C264.479 64.3792 266.592 64.7532 268.986 64.7532C270.482 64.7532 272.034 64.6223 273.642 64.3605C275.251 64.0987 276.691 63.7434 277.963 63.2945V66.0437C277.963 68.7367 277.177 70.8874 275.606 72.4957C274.073 74.1041 271.941 74.9082 269.21 74.9082C267.751 74.9082 266.237 74.609 264.666 74.0106C263.095 73.4121 261.486 72.5518 259.841 71.4297L258.662 73.4495C260.57 74.7212 262.403 75.675 264.161 76.3109C265.956 76.9841 267.733 77.3208 269.491 77.3208C272.969 77.3208 275.718 76.2922 277.738 74.235C279.758 72.1778 280.768 69.3726 280.768 65.8192V51.3442C280.768 50.8953 280.861 50.5587 281.048 50.3343C281.273 50.1098 281.591 49.9789 282.002 49.9415V47.6412C281.665 47.6038 281.385 47.5851 281.161 47.5851C280.936 47.5851 280.749 47.5851 280.599 47.5851C279.889 47.6973 279.328 47.9966 278.916 48.4828C278.542 48.969 278.337 49.5114 278.299 50.1098V52.4102C276.953 50.727 275.213 49.4179 273.081 48.4828C270.987 47.5477 268.78 47.0802 266.461 47.0802C264.628 47.0802 262.964 47.4729 261.468 48.2584C260.009 49.0439 258.849 50.1098 257.989 51.4564C257.166 52.8403 256.755 54.3738 256.755 56.057ZM276.84 53.6445C277.214 54.1307 277.495 54.5982 277.682 55.0471C277.869 55.4959 277.963 55.9074 277.963 56.2814V61.1064C276.616 61.6301 275.213 62.0228 273.755 62.2846C272.296 62.5464 270.8 62.6774 269.266 62.6774C266.349 62.6774 263.974 62.0976 262.141 60.9381C260.346 59.7786 259.448 58.2077 259.448 56.2253C259.448 54.991 259.766 53.8502 260.402 52.8029C261.038 51.7556 261.917 50.914 263.039 50.2782C264.198 49.6423 265.526 49.3244 267.022 49.3244C269.117 49.3244 271.043 49.7171 272.801 50.5026C274.596 51.3255 275.943 52.3727 276.84 53.6445Z" fill="url(#paint9_linear_111_1048)"/>
<path d="M227.409 47.6412V87.4757H230.271V50.222H254.059V47.6412H227.409Z" fill="url(#paint10_linear_111_1048)"/>
<defs>
<linearGradient id="paint0_linear_111_1048" x1="188.924" y1="81.753" x2="188.924" y2="47.6412" gradientUnits="userSpaceOnUse">
<stop/>
<stop offset="1" stop-color="#3B3B3B"/>
</linearGradient>
<linearGradient id="paint1_linear_111_1048" x1="150.384" y1="81.753" x2="150.384" y2="47" gradientUnits="userSpaceOnUse">
<stop/>
<stop offset="1" stop-color="#3B3B3B"/>
</linearGradient>
<linearGradient id="paint2_linear_111_1048" x1="112.093" y1="81.753" x2="112.093" y2="47.6412" gradientUnits="userSpaceOnUse">
<stop/>
<stop offset="1" stop-color="#3B3B3B"/>
</linearGradient>
<linearGradient id="paint3_linear_111_1048" x1="73.553" y1="81.753" x2="73.553" y2="47" gradientUnits="userSpaceOnUse">
<stop/>
<stop offset="1" stop-color="#3B3B3B"/>
</linearGradient>
<linearGradient id="paint4_linear_111_1048" x1="44.5536" y1="81.4965" x2="44.5536" y2="47.6412" gradientUnits="userSpaceOnUse">
<stop/>
<stop offset="1" stop-color="#3B3B3B"/>
</linearGradient>
<linearGradient id="paint5_linear_111_1048" x1="15.4208" y1="94.4487" x2="15.4208" y2="47.6412" gradientUnits="userSpaceOnUse">
<stop/>
<stop offset="1" stop-color="#3B3B3B"/>
</linearGradient>
<linearGradient id="paint6_linear_111_1048" x1="351.12" y1="52.4102" x2="351.12" y2="47.6412" gradientUnits="userSpaceOnUse">
<stop/>
<stop offset="1" stop-color="#3B3B3B"/>
</linearGradient>
<linearGradient id="paint7_linear_111_1048" x1="332.548" y1="77.3208" x2="332.548" y2="47.0802" gradientUnits="userSpaceOnUse">
<stop/>
<stop offset="1" stop-color="#3B3B3B"/>
</linearGradient>
<linearGradient id="paint8_linear_111_1048" x1="303.105" y1="88.5978" x2="303.105" y2="47.0802" gradientUnits="userSpaceOnUse">
<stop/>
<stop offset="1" stop-color="#3B3B3B"/>
</linearGradient>
<linearGradient id="paint9_linear_111_1048" x1="269.378" y1="77.3208" x2="269.378" y2="47.0802" gradientUnits="userSpaceOnUse">
<stop/>
<stop offset="1" stop-color="#3B3B3B"/>
</linearGradient>
<linearGradient id="paint10_linear_111_1048" x1="240.734" y1="87.4757" x2="240.734" y2="47.6412" gradientUnits="userSpaceOnUse">
<stop/>
<stop offset="1" stop-color="#3B3B3B"/>
</linearGradient>
</defs>
</svg>
