<svg width="136" height="45" viewBox="0 0 136 45" fill="none" xmlns="http://www.w3.org/2000/svg">
<g filter="url(#filter0_d_253_1671)">
<path d="M22.5 32C27.7467 32 32 27.7467 32 22.5C32 17.2533 27.7467 13 22.5 13C17.2533 13 13 17.2533 13 22.5C13 27.7467 17.2533 32 22.5 32Z" fill="#343434" shape-rendering="crispEdges"/>
<path d="M22.5 32C27.7467 32 32 27.7467 32 22.5C32 17.2533 27.7467 13 22.5 13C17.2533 13 13 17.2533 13 22.5C13 27.7467 17.2533 32 22.5 32Z" stroke="white" stroke-opacity="0.7" stroke-miterlimit="10" shape-rendering="crispEdges"/>
</g>
<path d="M97.8202 28.366H96.0282V23.5928C96.0282 22.7999 95.8978 22.2189 95.6372 21.8496C95.3874 21.4804 95.0127 21.2957 94.5131 21.2957C94.1655 21.2957 93.818 21.3826 93.4705 21.5564C93.1338 21.7302 92.8297 21.9691 92.5582 22.2732C92.2867 22.5664 92.0912 22.9085 91.9717 23.2995V28.366H90.1797V19.8458H91.8088V21.5564C92.026 21.1763 92.3084 20.8504 92.6559 20.5789C93.0143 20.2966 93.4162 20.0793 93.8615 19.9273C94.3067 19.7752 94.7792 19.6992 95.2788 19.6992C95.7892 19.6992 96.2074 19.7915 96.5332 19.9762C96.8699 20.1608 97.1305 20.416 97.3151 20.7418C97.5106 21.0568 97.641 21.4261 97.7061 21.8496C97.7821 22.2623 97.8202 22.7022 97.8202 23.1692V28.366Z" fill="white"/>
<path d="M84.2084 28.5289C83.5351 28.5289 82.9323 28.4149 82.4001 28.1868C81.868 27.9479 81.4064 27.6221 81.0154 27.2094C80.6353 26.7967 80.3421 26.3296 80.1357 25.8083C79.9293 25.2762 79.8262 24.7114 79.8262 24.1141C79.8262 23.5167 79.9293 22.952 80.1357 22.4198C80.3421 21.8876 80.6353 21.4206 81.0154 21.0188C81.4064 20.6061 81.868 20.2857 82.4001 20.0576C82.9432 19.8187 83.5459 19.6992 84.2084 19.6992C84.8709 19.6992 85.4683 19.8187 86.0005 20.0576C86.5435 20.2857 87.0051 20.6061 87.3852 21.0188C87.7762 21.4206 88.0748 21.8876 88.2812 22.4198C88.4875 22.952 88.5907 23.5167 88.5907 24.1141C88.5907 24.7114 88.4875 25.2762 88.2812 25.8083C88.0748 26.3296 87.7762 26.7967 87.3852 27.2094C87.0051 27.6221 86.5435 27.9479 86.0005 28.1868C85.4683 28.4149 84.8709 28.5289 84.2084 28.5289ZM81.6671 24.1304C81.6671 24.6734 81.7811 25.1621 82.0092 25.5966C82.2372 26.031 82.5413 26.3731 82.9215 26.6229C83.3016 26.8727 83.7306 26.9976 84.2084 26.9976C84.6755 26.9976 85.099 26.8727 85.4791 26.6229C85.8701 26.3622 86.1797 26.0147 86.4077 25.5803C86.6358 25.135 86.7498 24.6462 86.7498 24.1141C86.7498 23.571 86.6358 23.0823 86.4077 22.6479C86.1797 22.2135 85.8701 21.8713 85.4791 21.6216C85.099 21.3609 84.6755 21.2306 84.2084 21.2306C83.7306 21.2306 83.3016 21.3609 82.9215 21.6216C82.5413 21.8822 82.2372 22.2298 82.0092 22.6642C81.7811 23.0877 81.6671 23.5765 81.6671 24.1304Z" fill="white"/>
<path d="M78.3006 28.366H76.5086V23.5928C76.5086 22.7999 76.3783 22.2189 76.1176 21.8496C75.8678 21.4804 75.4931 21.2957 74.9936 21.2957C74.646 21.2957 74.2985 21.3826 73.9509 21.5564C73.6143 21.7302 73.3102 21.9691 73.0386 22.2732C72.7671 22.5664 72.5716 22.9085 72.4522 23.2995V28.366H70.6602V19.8458H72.2893V21.5564C72.5065 21.1763 72.7888 20.8504 73.1364 20.5789C73.4948 20.2966 73.8966 20.0793 74.3419 19.9273C74.7872 19.7752 75.2596 19.6992 75.7592 19.6992C76.2697 19.6992 76.6878 19.7915 77.0136 19.9762C77.3503 20.1608 77.611 20.416 77.7956 20.7418C77.9911 21.0568 78.1214 21.4261 78.1866 21.8496C78.2626 22.2623 78.3006 22.7022 78.3006 23.1692V28.366Z" fill="white"/>
<path d="M64.687 28.5289C64.0136 28.5289 63.4108 28.4149 62.8787 28.1868C62.3465 27.9479 61.8849 27.6221 61.4939 27.2094C61.1138 26.7967 60.8206 26.3296 60.6142 25.8083C60.4079 25.2762 60.3047 24.7114 60.3047 24.1141C60.3047 23.5167 60.4079 22.952 60.6142 22.4198C60.8206 21.8876 61.1138 21.4206 61.4939 21.0188C61.8849 20.6061 62.3465 20.2857 62.8787 20.0576C63.4217 19.8187 64.0245 19.6992 64.687 19.6992C65.3495 19.6992 65.9468 19.8187 66.479 20.0576C67.022 20.2857 67.4836 20.6061 67.8637 21.0188C68.2547 21.4206 68.5534 21.8876 68.7597 22.4198C68.9661 22.952 69.0692 23.5167 69.0692 24.1141C69.0692 24.7114 68.9661 25.2762 68.7597 25.8083C68.5534 26.3296 68.2547 26.7967 67.8637 27.2094C67.4836 27.6221 67.022 27.9479 66.479 28.1868C65.9468 28.4149 65.3495 28.5289 64.687 28.5289ZM62.1456 24.1304C62.1456 24.6734 62.2596 25.1621 62.4877 25.5966C62.7158 26.031 63.0199 26.3731 63.4 26.6229C63.7801 26.8727 64.2091 26.9976 64.687 26.9976C65.154 26.9976 65.5775 26.8727 65.9577 26.6229C66.3486 26.3622 66.6582 26.0147 66.8862 25.5803C67.1143 25.135 67.2284 24.6462 67.2284 24.1141C67.2284 23.571 67.1143 23.0823 66.8862 22.6479C66.6582 22.2135 66.3486 21.8713 65.9577 21.6216C65.5775 21.3609 65.154 21.2306 64.687 21.2306C64.2091 21.2306 63.7801 21.3609 63.4 21.6216C63.0199 21.8822 62.7158 22.2298 62.4877 22.6642C62.2596 23.0877 62.1456 23.5765 62.1456 24.1304Z" fill="white"/>
<path d="M59.7153 21.3928C59.0202 21.4036 58.4012 21.5611 57.8582 21.8652C57.326 22.1693 56.9459 22.5983 56.7178 23.1522V28.3653H54.9258V19.8451H56.5875V21.7512C56.8807 21.1647 57.2663 20.6977 57.7441 20.3501C58.222 19.9917 58.727 19.7963 59.2592 19.7637C59.3678 19.7637 59.4547 19.7637 59.5198 19.7637C59.5959 19.7637 59.661 19.7691 59.7153 19.78V21.3928Z" fill="white"/>
<path d="M51.9299 28.3651L49.193 24.4389L47.792 25.7748V28.3651H46V16.4727H47.792V23.9665L51.7344 19.8612H53.6568L50.3497 23.4289L53.836 28.3651H51.9299Z" fill="white"/>
<path d="M134.895 28.364V27.1523H135.522V28.364H134.895Z" fill="white"/>
<path d="M130.568 28.5075C129.979 28.5075 129.433 28.4077 128.929 28.2081C128.426 28.0085 127.984 27.7044 127.604 27.2958L127.931 26.7969C128.34 27.1865 128.753 27.4716 129.172 27.6522C129.59 27.8232 130.046 27.9088 130.54 27.9088C131.177 27.9088 131.69 27.7757 132.079 27.5096C132.479 27.2435 132.678 26.8729 132.678 26.3978C132.678 26.0747 132.583 25.8276 132.393 25.6565C132.213 25.476 131.946 25.3334 131.595 25.2289C131.253 25.1149 130.835 24.9961 130.34 24.8725C129.837 24.7395 129.409 24.6017 129.057 24.4591C128.715 24.3166 128.459 24.1313 128.288 23.9032C128.117 23.6751 128.031 23.3663 128.031 22.9767C128.031 22.492 128.15 22.0929 128.388 21.7793C128.635 21.4562 128.962 21.2186 129.371 21.0665C129.789 20.905 130.25 20.8242 130.754 20.8242C131.333 20.8242 131.837 20.9192 132.265 21.1093C132.702 21.2994 133.035 21.5512 133.263 21.8648L132.878 22.321C132.64 22.0169 132.331 21.7935 131.951 21.651C131.571 21.4989 131.153 21.4229 130.697 21.4229C130.355 21.4229 130.032 21.4704 129.727 21.5655C129.423 21.6605 129.176 21.8173 128.986 22.0359C128.806 22.2449 128.715 22.53 128.715 22.8911C128.715 23.1762 128.782 23.3996 128.915 23.5611C129.057 23.7227 129.267 23.8557 129.542 23.9602C129.818 24.0553 130.16 24.1598 130.568 24.2738C131.148 24.4164 131.647 24.5637 132.065 24.7157C132.483 24.8678 132.806 25.0673 133.035 25.3144C133.263 25.552 133.377 25.8894 133.377 26.3265C133.377 27.0012 133.12 27.5334 132.607 27.923C132.094 28.3126 131.414 28.5075 130.568 28.5075Z" fill="white"/>
<path d="M122.966 28.5074C122.386 28.5074 121.844 28.3553 121.341 28.0513C120.837 27.7376 120.443 27.348 120.158 26.8824V28.3649H119.502V17.959H120.215V22.5632C120.566 22.0501 120.98 21.6319 121.455 21.3088C121.939 20.9857 122.495 20.8242 123.123 20.8242C123.655 20.8242 124.125 20.9334 124.534 21.152C124.952 21.3706 125.308 21.6652 125.603 22.0358C125.898 22.4064 126.121 22.8198 126.273 23.276C126.434 23.7321 126.515 24.2025 126.515 24.6872C126.515 25.1908 126.425 25.6755 126.244 26.1411C126.064 26.5973 125.812 27.0059 125.489 27.367C125.166 27.7186 124.79 27.999 124.363 28.2081C123.935 28.4076 123.469 28.5074 122.966 28.5074ZM122.823 27.8659C123.26 27.8659 123.66 27.7804 124.021 27.6094C124.382 27.4288 124.691 27.1865 124.947 26.8824C125.213 26.5783 125.418 26.2362 125.56 25.856C125.712 25.4759 125.788 25.0863 125.788 24.6872C125.788 24.1265 125.669 23.6038 125.432 23.1192C125.194 22.625 124.862 22.2259 124.434 21.9218C124.006 21.6177 123.512 21.4656 122.952 21.4656C122.533 21.4656 122.149 21.5606 121.797 21.7507C121.445 21.9313 121.136 22.1688 120.87 22.4634C120.614 22.758 120.395 23.0811 120.215 23.4328V25.8845C120.253 26.1601 120.357 26.4215 120.528 26.6686C120.699 26.9061 120.913 27.1152 121.17 27.2958C121.436 27.4668 121.711 27.6046 121.997 27.7091C122.291 27.8137 122.567 27.8659 122.823 27.8659Z" fill="white"/>
<path d="M111.232 26.2267C111.232 25.7801 111.365 25.3952 111.632 25.0721C111.898 24.7395 112.264 24.4829 112.729 24.3023C113.195 24.1123 113.732 24.0173 114.34 24.0173C114.72 24.0173 115.114 24.0505 115.523 24.117C115.932 24.1836 116.298 24.2738 116.621 24.3879V23.6894C116.621 23.0052 116.421 22.4587 116.022 22.0501C115.632 21.6415 115.091 21.4372 114.397 21.4372C114.026 21.4372 113.641 21.5132 113.242 21.6652C112.843 21.8173 112.435 22.0359 112.016 22.321L111.717 21.8078C112.202 21.4847 112.667 21.2424 113.114 21.0808C113.57 20.9097 114.022 20.8242 114.468 20.8242C115.352 20.8242 116.05 21.0856 116.564 21.6082C117.077 22.1309 117.333 22.8436 117.333 23.7464V27.4241C117.333 27.5381 117.357 27.6237 117.405 27.6807C117.462 27.7377 117.542 27.771 117.647 27.7805V28.3649C117.561 28.3744 117.49 28.3792 117.433 28.3792C117.376 28.3792 117.329 28.3792 117.291 28.3792C117.11 28.3507 116.968 28.2746 116.863 28.1511C116.768 28.0275 116.716 27.8898 116.706 27.7377V27.1533C116.364 27.5809 115.922 27.9135 115.381 28.1511C114.848 28.3887 114.288 28.5075 113.698 28.5075C113.233 28.5075 112.81 28.4077 112.43 28.2081C112.059 28.0085 111.765 27.7377 111.546 27.3956C111.337 27.044 111.232 26.6544 111.232 26.2267ZM116.336 26.8397C116.431 26.7161 116.502 26.5973 116.549 26.4833C116.597 26.3693 116.621 26.2647 116.621 26.1697V24.9438C116.279 24.8108 115.922 24.711 115.552 24.6445C115.181 24.5779 114.801 24.5447 114.411 24.5447C113.67 24.5447 113.067 24.692 112.601 24.9866C112.145 25.2812 111.917 25.6803 111.917 26.184C111.917 26.4976 111.997 26.7874 112.159 27.0535C112.321 27.3196 112.544 27.5334 112.829 27.6949C113.124 27.8565 113.461 27.9373 113.841 27.9373C114.373 27.9373 114.863 27.8375 115.309 27.6379C115.765 27.4289 116.107 27.1628 116.336 26.8397Z" fill="white"/>
<path d="M103.777 28.3649V18.2441H104.504V27.7092H110.548V28.3649H103.777Z" fill="white"/>
<defs>
<filter id="filter0_d_253_1671" x="0.5" y="0.5" width="44" height="44" filterUnits="userSpaceOnUse" color-interpolation-filters="sRGB">
<feFlood flood-opacity="0" result="BackgroundImageFix"/>
<feColorMatrix in="SourceAlpha" type="matrix" values="0 0 0 0 0 0 0 0 0 0 0 0 0 0 0 0 0 0 127 0" result="hardAlpha"/>
<feOffset/>
<feGaussianBlur stdDeviation="6"/>
<feComposite in2="hardAlpha" operator="out"/>
<feColorMatrix type="matrix" values="0 0 0 0 1 0 0 0 0 1 0 0 0 0 1 0 0 0 0.7 0"/>
<feBlend mode="normal" in2="BackgroundImageFix" result="effect1_dropShadow_253_1671"/>
<feBlend mode="normal" in="SourceGraphic" in2="effect1_dropShadow_253_1671" result="shape"/>
</filter>
</defs>
</svg>
