<svg width="136" height="45" viewBox="0 0 136 45" fill="none" xmlns="http://www.w3.org/2000/svg">
<g filter="url(#filter0_d_198_178)">
<path d="M22.5 32C27.7467 32 32 27.7467 32 22.5C32 17.2533 27.7467 13 22.5 13C17.2533 13 13 17.2533 13 22.5C13 27.7467 17.2533 32 22.5 32Z" fill="#343434" shape-rendering="crispEdges"/>
<path d="M22.5 32C27.7467 32 32 27.7467 32 22.5C32 17.2533 27.7467 13 22.5 13C17.2533 13 13 17.2533 13 22.5C13 27.7467 17.2533 32 22.5 32Z" stroke="white" stroke-opacity="0.7" stroke-miterlimit="10" shape-rendering="crispEdges"/>
</g>
<path d="M97.8202 28.3646H96.0282V23.5913C96.0282 22.7985 95.8978 22.2174 95.6372 21.8482C95.3874 21.4789 95.0127 21.2943 94.5131 21.2943C94.1655 21.2943 93.818 21.3812 93.4705 21.5549C93.1338 21.7287 92.8297 21.9676 92.5582 22.2717C92.2867 22.565 92.0912 22.9071 91.9717 23.2981V28.3646H90.1797V19.8444H91.8088V21.5549C92.026 21.1748 92.3084 20.849 92.6559 20.5775C93.0143 20.2951 93.4162 20.0779 93.8615 19.9258C94.3067 19.7738 94.7792 19.6978 95.2788 19.6978C95.7892 19.6978 96.2074 19.7901 96.5332 19.9747C96.8699 20.1593 97.1305 20.4146 97.3151 20.7404C97.5106 21.0553 97.641 21.4246 97.7061 21.8482C97.7821 22.2609 97.8202 22.7007 97.8202 23.1677V28.3646Z" fill="white"/>
<path d="M84.2084 28.5275C83.5351 28.5275 82.9323 28.4134 82.4001 28.1854C81.868 27.9464 81.4064 27.6206 81.0154 27.2079C80.6353 26.7952 80.3421 26.3282 80.1357 25.8069C79.9293 25.2747 79.8262 24.7099 79.8262 24.1126C79.8262 23.5153 79.9293 22.9505 80.1357 22.4183C80.3421 21.8862 80.6353 21.4192 81.0154 21.0173C81.4064 20.6046 81.868 20.2842 82.4001 20.0562C82.9432 19.8172 83.5459 19.6978 84.2084 19.6978C84.8709 19.6978 85.4683 19.8172 86.0005 20.0562C86.5435 20.2842 87.0051 20.6046 87.3852 21.0173C87.7762 21.4192 88.0748 21.8862 88.2812 22.4183C88.4875 22.9505 88.5907 23.5153 88.5907 24.1126C88.5907 24.7099 88.4875 25.2747 88.2812 25.8069C88.0748 26.3282 87.7762 26.7952 87.3852 27.2079C87.0051 27.6206 86.5435 27.9464 86.0005 28.1854C85.4683 28.4134 84.8709 28.5275 84.2084 28.5275ZM81.6671 24.1289C81.6671 24.6719 81.7811 25.1607 82.0092 25.5951C82.2372 26.0295 82.5413 26.3716 82.9215 26.6214C83.3016 26.8712 83.7306 26.9961 84.2084 26.9961C84.6755 26.9961 85.099 26.8712 85.4791 26.6214C85.8701 26.3608 86.1797 26.0132 86.4077 25.5788C86.6358 25.1335 86.7498 24.6448 86.7498 24.1126C86.7498 23.5696 86.6358 23.0808 86.4077 22.6464C86.1797 22.212 85.8701 21.8699 85.4791 21.6201C85.099 21.3594 84.6755 21.2291 84.2084 21.2291C83.7306 21.2291 83.3016 21.3594 82.9215 21.6201C82.5413 21.8807 82.2372 22.2283 82.0092 22.6627C81.7811 23.0863 81.6671 23.575 81.6671 24.1289Z" fill="white"/>
<path d="M78.3006 28.3646H76.5086V23.5913C76.5086 22.7985 76.3783 22.2174 76.1176 21.8482C75.8678 21.4789 75.4931 21.2943 74.9936 21.2943C74.646 21.2943 74.2985 21.3812 73.9509 21.5549C73.6143 21.7287 73.3102 21.9676 73.0386 22.2717C72.7671 22.565 72.5716 22.9071 72.4522 23.2981V28.3646H70.6602V19.8444H72.2893V21.5549C72.5065 21.1748 72.7888 20.849 73.1364 20.5775C73.4948 20.2951 73.8966 20.0779 74.3419 19.9258C74.7872 19.7738 75.2596 19.6978 75.7592 19.6978C76.2697 19.6978 76.6878 19.7901 77.0136 19.9747C77.3503 20.1593 77.611 20.4146 77.7956 20.7404C77.9911 21.0553 78.1214 21.4246 78.1866 21.8482C78.2626 22.2609 78.3006 22.7007 78.3006 23.1677V28.3646Z" fill="white"/>
<path d="M64.687 28.5275C64.0136 28.5275 63.4108 28.4134 62.8787 28.1854C62.3465 27.9464 61.8849 27.6206 61.4939 27.2079C61.1138 26.7952 60.8206 26.3282 60.6142 25.8069C60.4079 25.2747 60.3047 24.7099 60.3047 24.1126C60.3047 23.5153 60.4079 22.9505 60.6142 22.4183C60.8206 21.8862 61.1138 21.4192 61.4939 21.0173C61.8849 20.6046 62.3465 20.2842 62.8787 20.0562C63.4217 19.8172 64.0245 19.6978 64.687 19.6978C65.3495 19.6978 65.9468 19.8172 66.479 20.0562C67.022 20.2842 67.4836 20.6046 67.8637 21.0173C68.2547 21.4192 68.5534 21.8862 68.7597 22.4183C68.9661 22.9505 69.0692 23.5153 69.0692 24.1126C69.0692 24.7099 68.9661 25.2747 68.7597 25.8069C68.5534 26.3282 68.2547 26.7952 67.8637 27.2079C67.4836 27.6206 67.022 27.9464 66.479 28.1854C65.9468 28.4134 65.3495 28.5275 64.687 28.5275ZM62.1456 24.1289C62.1456 24.6719 62.2596 25.1607 62.4877 25.5951C62.7158 26.0295 63.0199 26.3716 63.4 26.6214C63.7801 26.8712 64.2091 26.9961 64.687 26.9961C65.154 26.9961 65.5775 26.8712 65.9577 26.6214C66.3486 26.3608 66.6582 26.0132 66.8862 25.5788C67.1143 25.1335 67.2284 24.6448 67.2284 24.1126C67.2284 23.5696 67.1143 23.0808 66.8862 22.6464C66.6582 22.212 66.3486 21.8699 65.9577 21.6201C65.5775 21.3594 65.154 21.2291 64.687 21.2291C64.2091 21.2291 63.7801 21.3594 63.4 21.6201C63.0199 21.8807 62.7158 22.2283 62.4877 22.6627C62.2596 23.0863 62.1456 23.575 62.1456 24.1289Z" fill="white"/>
<path d="M59.7153 21.3918C59.0202 21.4027 58.4012 21.5601 57.8582 21.8642C57.326 22.1683 56.9459 22.5973 56.7178 23.1512V28.3643H54.9258V19.8442H56.5875V21.7502C56.8807 21.1637 57.2663 20.6967 57.7441 20.3492C58.222 19.9908 58.727 19.7953 59.2592 19.7627C59.3678 19.7627 59.4547 19.7627 59.5198 19.7627C59.5959 19.7627 59.661 19.7681 59.7153 19.779V21.3918Z" fill="white"/>
<path d="M51.9299 28.3646L49.193 24.4385L47.792 25.7743V28.3646H46V16.4722H47.792V23.966L51.7344 19.8607H53.6568L50.3497 23.4284L53.836 28.3646H51.9299Z" fill="white"/>
<path d="M134.895 28.3645V27.1528H135.522V28.3645H134.895Z" fill="white"/>
<path d="M130.568 28.507C129.979 28.507 129.433 28.4072 128.929 28.2076C128.426 28.0081 127.984 27.704 127.604 27.2953L127.931 26.7964C128.34 27.186 128.753 27.4711 129.172 27.6517C129.59 27.8227 130.046 27.9083 130.54 27.9083C131.177 27.9083 131.69 27.7752 132.079 27.5091C132.479 27.2431 132.678 26.8724 132.678 26.3973C132.678 26.0742 132.583 25.8271 132.393 25.656C132.213 25.4755 131.946 25.3329 131.595 25.2284C131.253 25.1144 130.835 24.9956 130.34 24.872C129.837 24.739 129.409 24.6012 129.057 24.4587C128.715 24.3161 128.459 24.1308 128.288 23.9027C128.117 23.6747 128.031 23.3658 128.031 22.9762C128.031 22.4915 128.15 22.0924 128.388 21.7788C128.635 21.4557 128.962 21.2181 129.371 21.0661C129.789 20.9045 130.25 20.8237 130.754 20.8237C131.333 20.8237 131.837 20.9188 132.265 21.1088C132.702 21.2989 133.035 21.5507 133.263 21.8643L132.878 22.3205C132.64 22.0164 132.331 21.793 131.951 21.6505C131.571 21.4984 131.153 21.4224 130.697 21.4224C130.355 21.4224 130.032 21.4699 129.727 21.565C129.423 21.66 129.176 21.8168 128.986 22.0354C128.806 22.2444 128.715 22.5295 128.715 22.8906C128.715 23.1757 128.782 23.3991 128.915 23.5606C129.057 23.7222 129.267 23.8552 129.542 23.9597C129.818 24.0548 130.16 24.1593 130.568 24.2733C131.148 24.4159 131.647 24.5632 132.065 24.7152C132.483 24.8673 132.806 25.0669 133.035 25.3139C133.263 25.5515 133.377 25.8889 133.377 26.326C133.377 27.0007 133.12 27.5329 132.607 27.9225C132.094 28.3122 131.414 28.507 130.568 28.507Z" fill="white"/>
<path d="M122.966 28.5069C122.386 28.5069 121.844 28.3549 121.341 28.0508C120.837 27.7372 120.443 27.3475 120.158 26.8819V28.3644H119.502V17.9585H120.215V22.5627C120.566 22.0496 120.98 21.6314 121.455 21.3083C121.939 20.9852 122.495 20.8237 123.123 20.8237C123.655 20.8237 124.125 20.933 124.534 21.1515C124.952 21.3701 125.308 21.6647 125.603 22.0353C125.898 22.4059 126.121 22.8193 126.273 23.2755C126.434 23.7316 126.515 24.202 126.515 24.6867C126.515 25.1903 126.425 25.675 126.244 26.1406C126.064 26.5968 125.812 27.0054 125.489 27.3665C125.166 27.7182 124.79 27.9985 124.363 28.2076C123.935 28.4071 123.469 28.5069 122.966 28.5069ZM122.823 27.8655C123.26 27.8655 123.66 27.7799 124.021 27.6089C124.382 27.4283 124.691 27.186 124.947 26.8819C125.213 26.5778 125.418 26.2357 125.56 25.8556C125.712 25.4754 125.788 25.0858 125.788 24.6867C125.788 24.126 125.669 23.6033 125.432 23.1187C125.194 22.6245 124.862 22.2254 124.434 21.9213C124.006 21.6172 123.512 21.4651 122.952 21.4651C122.533 21.4651 122.149 21.5602 121.797 21.7502C121.445 21.9308 121.136 22.1684 120.87 22.463C120.614 22.7575 120.395 23.0807 120.215 23.4323V25.8841C120.253 26.1596 120.357 26.421 120.528 26.6681C120.699 26.9056 120.913 27.1147 121.17 27.2953C121.436 27.4663 121.711 27.6041 121.997 27.7087C122.291 27.8132 122.567 27.8655 122.823 27.8655Z" fill="white"/>
<path d="M111.232 26.2262C111.232 25.7796 111.365 25.3947 111.632 25.0716C111.898 24.739 112.264 24.4824 112.729 24.3019C113.195 24.1118 113.732 24.0168 114.34 24.0168C114.72 24.0168 115.114 24.05 115.523 24.1165C115.932 24.1831 116.298 24.2733 116.621 24.3874V23.6889C116.621 23.0047 116.421 22.4583 116.022 22.0496C115.632 21.641 115.091 21.4367 114.397 21.4367C114.026 21.4367 113.641 21.5127 113.242 21.6648C112.843 21.8168 112.435 22.0354 112.016 22.3205L111.717 21.8073C112.202 21.4842 112.667 21.2419 113.114 21.0803C113.57 20.9093 114.022 20.8237 114.468 20.8237C115.352 20.8237 116.05 21.0851 116.564 21.6077C117.077 22.1304 117.333 22.8431 117.333 23.7459V27.4236C117.333 27.5377 117.357 27.6232 117.405 27.6802C117.462 27.7372 117.542 27.7705 117.647 27.78V28.3644C117.561 28.3739 117.49 28.3787 117.433 28.3787C117.376 28.3787 117.329 28.3787 117.291 28.3787C117.11 28.3502 116.968 28.2741 116.863 28.1506C116.768 28.0271 116.716 27.8893 116.706 27.7372V27.1528C116.364 27.5804 115.922 27.913 115.381 28.1506C114.848 28.3882 114.288 28.507 113.698 28.507C113.233 28.507 112.81 28.4072 112.43 28.2076C112.059 28.0081 111.765 27.7372 111.546 27.3951C111.337 27.0435 111.232 26.6539 111.232 26.2262ZM116.336 26.8392C116.431 26.7156 116.502 26.5968 116.549 26.4828C116.597 26.3688 116.621 26.2642 116.621 26.1692V24.9433C116.279 24.8103 115.922 24.7105 115.552 24.644C115.181 24.5774 114.801 24.5442 114.411 24.5442C113.67 24.5442 113.067 24.6915 112.601 24.9861C112.145 25.2807 111.917 25.6798 111.917 26.1835C111.917 26.4971 111.997 26.7869 112.159 27.053C112.321 27.3191 112.544 27.5329 112.829 27.6945C113.124 27.856 113.461 27.9368 113.841 27.9368C114.373 27.9368 114.863 27.837 115.309 27.6374C115.765 27.4284 116.107 27.1623 116.336 26.8392Z" fill="white"/>
<path d="M103.777 28.3644V18.2437H104.504V27.7087H110.548V28.3644H103.777Z" fill="white"/>
<defs>
<filter id="filter0_d_198_178" x="0.5" y="0.5" width="44" height="44" filterUnits="userSpaceOnUse" color-interpolation-filters="sRGB">
<feFlood flood-opacity="0" result="BackgroundImageFix"/>
<feColorMatrix in="SourceAlpha" type="matrix" values="0 0 0 0 0 0 0 0 0 0 0 0 0 0 0 0 0 0 127 0" result="hardAlpha"/>
<feOffset/>
<feGaussianBlur stdDeviation="6"/>
<feComposite in2="hardAlpha" operator="out"/>
<feColorMatrix type="matrix" values="0 0 0 0 1 0 0 0 0 1 0 0 0 0 1 0 0 0 0.7 0"/>
<feBlend mode="normal" in2="BackgroundImageFix" result="effect1_dropShadow_198_178"/>
<feBlend mode="normal" in="SourceGraphic" in2="effect1_dropShadow_198_178" result="shape"/>
</filter>
</defs>
</svg>
